<svg width="1802" height="585" viewBox="0 0 1802 585" fill="none" xmlns="http://www.w3.org/2000/svg">
<path d="M1565.93 77.0948H1541.02C1528.41 77.0948 1518.27 87.3193 1518.27 99.8527C1518.27 112.468 1528.49 122.693 1541.02 122.693H1577.22L1588.68 133V113.375V101.254V99.9351C1588.68 87.3193 1578.54 77.0948 1565.93 77.0948Z" fill="#2E2E30"/>
<path d="M1525.94 74.1264C1525.11 74.1264 1524.45 73.4667 1524.45 72.6422V63.9843C1524.45 63.1597 1525.11 62.5001 1525.94 62.5001C1526.76 62.5001 1527.42 63.1597 1527.42 63.9843V72.6422C1527.5 73.4667 1526.76 74.1264 1525.94 74.1264Z" fill="#2E2E30"/>
<path d="M1519.92 76.6C1519.34 77.1772 1518.35 77.1772 1517.77 76.6L1511.75 70.4983C1511.09 69.9211 1511.09 69.0141 1511.75 68.4369C1512.33 67.8597 1513.32 67.8597 1513.9 68.4369L1520 74.5386C1520.49 75.1158 1520.49 76.0228 1519.92 76.6Z" fill="#2E2E30"/>
<path d="M1517.44 82.6193C1517.44 83.4438 1516.78 84.1035 1515.96 84.1035H1507.3C1506.48 84.1035 1505.82 83.4438 1505.82 82.6193C1505.82 81.7947 1506.48 81.1351 1507.3 81.1351H1515.96C1516.78 81.1351 1517.44 81.7947 1517.44 82.6193Z" fill="#2E2E30"/>
<path d="M1540.51 108.339C1539.53 108.339 1538.63 108.159 1537.81 107.799C1536.99 107.425 1536.28 106.912 1535.67 106.259C1535.07 105.592 1534.6 104.812 1534.27 103.919C1533.93 103.012 1533.77 102.025 1533.77 100.959C1533.77 100.092 1533.87 99.2786 1534.09 98.5186C1534.31 97.7453 1534.63 97.0453 1535.03 96.4186C1535.44 95.7786 1535.92 95.2319 1536.47 94.7786C1537.03 94.3119 1537.65 93.9586 1538.33 93.7186C1539.01 93.4653 1539.73 93.3386 1540.49 93.3386C1541.34 93.3386 1542.13 93.4853 1542.87 93.7786C1543.61 94.0719 1544.27 94.4853 1544.83 95.0186C1545.4 95.5519 1545.84 96.1919 1546.15 96.9386L1544.61 97.5186C1544.19 96.6786 1543.63 96.0319 1542.91 95.5786C1542.2 95.1119 1541.4 94.8786 1540.51 94.8786C1539.79 94.8786 1539.12 95.0319 1538.51 95.3386C1537.91 95.6453 1537.38 96.0719 1536.93 96.6186C1536.47 97.1653 1536.12 97.8053 1535.87 98.5386C1535.61 99.2719 1535.49 100.072 1535.49 100.939C1535.49 101.792 1535.61 102.579 1535.85 103.299C1536.1 104.005 1536.45 104.625 1536.91 105.159C1537.36 105.679 1537.89 106.085 1538.51 106.379C1539.13 106.659 1539.81 106.799 1540.55 106.799C1541.47 106.799 1542.28 106.572 1542.99 106.119C1543.71 105.665 1544.29 105.012 1544.75 104.159L1546.29 104.739C1545.97 105.485 1545.52 106.132 1544.95 106.679C1544.37 107.212 1543.71 107.625 1542.95 107.919C1542.19 108.199 1541.37 108.339 1540.51 108.339ZM1548.72 107.939V93.7386H1550.3L1555.5 103.259L1560.72 93.7386H1562.24V107.939H1560.6V96.8586L1556.14 104.979H1554.82L1550.36 96.8586V107.939H1548.72ZM1569.28 108.239C1568.54 108.239 1567.84 108.112 1567.2 107.859C1566.56 107.592 1566.01 107.219 1565.54 106.739C1565.08 106.259 1564.74 105.692 1564.52 105.039L1566.1 104.539C1566.37 105.232 1566.78 105.772 1567.32 106.159C1567.88 106.545 1568.53 106.739 1569.26 106.739C1569.84 106.739 1570.35 106.625 1570.8 106.399C1571.27 106.159 1571.63 105.839 1571.88 105.439C1572.15 105.025 1572.28 104.565 1572.28 104.059C1572.28 103.405 1572.06 102.872 1571.6 102.459C1571.16 102.032 1570.52 101.725 1569.68 101.539L1568.8 101.339C1567.5 101.045 1566.52 100.565 1565.86 99.8986C1565.21 99.2319 1564.88 98.4119 1564.88 97.4386C1564.88 96.8519 1564.99 96.3186 1565.2 95.8386C1565.43 95.3453 1565.74 94.9186 1566.14 94.5586C1566.54 94.1986 1567 93.9253 1567.52 93.7386C1568.06 93.5386 1568.63 93.4386 1569.24 93.4386C1569.96 93.4386 1570.62 93.5719 1571.22 93.8386C1571.84 94.0919 1572.36 94.4586 1572.8 94.9386C1573.24 95.4186 1573.56 95.9786 1573.76 96.6186L1572.18 97.1186C1571.92 96.4119 1571.53 95.8719 1571.02 95.4986C1570.52 95.1253 1569.92 94.9386 1569.24 94.9386C1568.72 94.9386 1568.26 95.0453 1567.86 95.2586C1567.46 95.4586 1567.15 95.7386 1566.92 96.0986C1566.7 96.4453 1566.58 96.8519 1566.58 97.3186C1566.58 97.9319 1566.8 98.4386 1567.24 98.8386C1567.68 99.2253 1568.38 99.5319 1569.34 99.7586L1570.22 99.9586C1571.49 100.252 1572.43 100.745 1573.04 101.439C1573.67 102.132 1573.98 102.972 1573.98 103.959C1573.98 104.585 1573.86 105.165 1573.62 105.699C1573.4 106.219 1573.07 106.672 1572.64 107.059C1572.23 107.432 1571.74 107.725 1571.16 107.939C1570.59 108.139 1569.96 108.239 1569.28 108.239Z" fill="#4B4B4B"/>
<path d="M1712.78 271.4C1711.81 271.4 1710.91 271.22 1710.08 270.86C1709.27 270.487 1708.55 269.973 1707.94 269.32C1707.34 268.653 1706.87 267.873 1706.54 266.98C1706.21 266.073 1706.04 265.087 1706.04 264.02C1706.04 263.153 1706.15 262.34 1706.36 261.58C1706.59 260.807 1706.9 260.107 1707.3 259.48C1707.71 258.84 1708.19 258.293 1708.74 257.84C1709.3 257.373 1709.92 257.02 1710.6 256.78C1711.28 256.527 1712 256.4 1712.76 256.4C1713.61 256.4 1714.41 256.547 1715.14 256.84C1715.89 257.133 1716.54 257.547 1717.1 258.08C1717.67 258.613 1718.11 259.253 1718.42 260L1716.88 260.58C1716.47 259.74 1715.9 259.093 1715.18 258.64C1714.47 258.173 1713.67 257.94 1712.78 257.94C1712.06 257.94 1711.39 258.093 1710.78 258.4C1710.18 258.707 1709.65 259.133 1709.2 259.68C1708.75 260.227 1708.39 260.867 1708.14 261.6C1707.89 262.333 1707.76 263.133 1707.76 264C1707.76 264.853 1707.88 265.64 1708.12 266.36C1708.37 267.067 1708.73 267.687 1709.18 268.22C1709.63 268.74 1710.17 269.147 1710.78 269.44C1711.41 269.72 1712.09 269.86 1712.82 269.86C1713.74 269.86 1714.55 269.633 1715.26 269.18C1715.98 268.727 1716.57 268.073 1717.02 267.22L1718.56 267.8C1718.24 268.547 1717.79 269.193 1717.22 269.74C1716.65 270.273 1715.98 270.687 1715.22 270.98C1714.46 271.26 1713.65 271.4 1712.78 271.4ZM1721.23 266.16V264.82H1724.65V261.34H1726.07V264.82H1729.51V266.16H1726.07V269.76H1724.65V266.16H1721.23ZM1733.11 266.16V264.82H1736.53V261.34H1737.95V264.82H1741.39V266.16H1737.95V269.76H1736.53V266.16H1733.11Z" fill="#4B4B4B"/>
<path d="M1249.56 297V282.8H1251.24V288.84H1259.12V282.8H1260.8V297H1259.12V290.38H1251.24V297H1249.56ZM1267.66 297V284.34H1263.32V282.8H1273.68V284.34H1269.34V297H1267.66ZM1276.2 297V282.8H1277.78L1282.98 292.32L1288.2 282.8H1289.72V297H1288.08V285.92L1283.62 294.04H1282.3L1277.84 285.92V297H1276.2ZM1292.84 297V282.8H1294.52V295.46H1300.84V297H1292.84Z" fill="#4B4B4B"/>
<path d="M1225.56 31V16.8H1229.48C1230.56 16.8 1231.49 16.98 1232.26 17.34C1233.05 17.7 1233.65 18.2133 1234.06 18.88C1234.47 19.5467 1234.68 20.3467 1234.68 21.28C1234.68 22.1867 1234.46 22.9733 1234.02 23.64C1233.58 24.3067 1232.95 24.82 1232.14 25.18C1231.33 25.54 1230.37 25.72 1229.26 25.72C1228.97 25.72 1228.65 25.7067 1228.3 25.68C1227.97 25.6533 1227.61 25.6133 1227.24 25.56V31H1225.56ZM1227.24 18.3V24.06C1227.56 24.1133 1227.89 24.1533 1228.24 24.18C1228.6 24.2067 1228.93 24.22 1229.22 24.22C1230.41 24.22 1231.33 23.9667 1231.98 23.46C1232.63 22.94 1232.96 22.2067 1232.96 21.26C1232.96 20.6467 1232.82 20.12 1232.54 19.68C1232.26 19.24 1231.86 18.9 1231.34 18.66C1230.82 18.42 1230.19 18.3 1229.46 18.3H1227.24ZM1236.99 31V16.8H1238.67V22.84H1246.55V16.8H1248.23V31H1246.55V24.38H1238.67V31H1236.99ZM1251.34 31V16.8H1255.26C1256.34 16.8 1257.27 16.98 1258.04 17.34C1258.83 17.7 1259.43 18.2133 1259.84 18.88C1260.25 19.5467 1260.46 20.3467 1260.46 21.28C1260.46 22.1867 1260.24 22.9733 1259.8 23.64C1259.36 24.3067 1258.73 24.82 1257.92 25.18C1257.11 25.54 1256.15 25.72 1255.04 25.72C1254.75 25.72 1254.43 25.7067 1254.08 25.68C1253.75 25.6533 1253.39 25.6133 1253.02 25.56V31H1251.34ZM1253.02 18.3V24.06C1253.34 24.1133 1253.67 24.1533 1254.02 24.18C1254.38 24.2067 1254.71 24.22 1255 24.22C1256.19 24.22 1257.11 23.9667 1257.76 23.46C1258.41 22.94 1258.74 22.2067 1258.74 21.26C1258.74 20.6467 1258.6 20.12 1258.32 19.68C1258.04 19.24 1257.64 18.9 1257.12 18.66C1256.6 18.42 1255.97 18.3 1255.24 18.3H1253.02Z" fill="#4B4B4B"/>
<path d="M1772.78 481.4C1771.81 481.4 1770.91 481.22 1770.08 480.86C1769.27 480.487 1768.55 479.973 1767.94 479.32C1767.34 478.653 1766.87 477.873 1766.54 476.98C1766.21 476.073 1766.04 475.087 1766.04 474.02C1766.04 473.153 1766.15 472.34 1766.36 471.58C1766.59 470.807 1766.9 470.107 1767.3 469.48C1767.71 468.84 1768.19 468.293 1768.74 467.84C1769.3 467.373 1769.92 467.02 1770.6 466.78C1771.28 466.527 1772 466.4 1772.76 466.4C1773.61 466.4 1774.41 466.547 1775.14 466.84C1775.89 467.133 1776.54 467.547 1777.1 468.08C1777.67 468.613 1778.11 469.253 1778.42 470L1776.88 470.58C1776.47 469.74 1775.9 469.093 1775.18 468.64C1774.47 468.173 1773.67 467.94 1772.78 467.94C1772.06 467.94 1771.39 468.093 1770.78 468.4C1770.18 468.707 1769.65 469.133 1769.2 469.68C1768.75 470.227 1768.39 470.867 1768.14 471.6C1767.89 472.333 1767.76 473.133 1767.76 474C1767.76 474.853 1767.88 475.64 1768.12 476.36C1768.37 477.067 1768.73 477.687 1769.18 478.22C1769.63 478.74 1770.17 479.147 1770.78 479.44C1771.41 479.72 1772.09 479.86 1772.82 479.86C1773.74 479.86 1774.55 479.633 1775.26 479.18C1775.98 478.727 1776.57 478.073 1777.02 477.22L1778.56 477.8C1778.24 478.547 1777.79 479.193 1777.22 479.74C1776.65 480.273 1775.98 480.687 1775.22 480.98C1774.46 481.26 1773.65 481.4 1772.78 481.4ZM1785.11 481.3C1784.36 481.3 1783.67 481.173 1783.03 480.92C1782.39 480.653 1781.84 480.28 1781.37 479.8C1780.9 479.32 1780.56 478.753 1780.35 478.1L1781.93 477.6C1782.2 478.293 1782.6 478.833 1783.15 479.22C1783.71 479.607 1784.36 479.8 1785.09 479.8C1785.66 479.8 1786.18 479.687 1786.63 479.46C1787.1 479.22 1787.46 478.9 1787.71 478.5C1787.98 478.087 1788.11 477.627 1788.11 477.12C1788.11 476.467 1787.88 475.933 1787.43 475.52C1786.99 475.093 1786.35 474.787 1785.51 474.6L1784.63 474.4C1783.32 474.107 1782.34 473.627 1781.69 472.96C1781.04 472.293 1780.71 471.473 1780.71 470.5C1780.71 469.913 1780.82 469.38 1781.03 468.9C1781.26 468.407 1781.57 467.98 1781.97 467.62C1782.37 467.26 1782.83 466.987 1783.35 466.8C1783.88 466.6 1784.46 466.5 1785.07 466.5C1785.79 466.5 1786.45 466.633 1787.05 466.9C1787.66 467.153 1788.19 467.52 1788.63 468C1789.07 468.48 1789.39 469.04 1789.59 469.68L1788.01 470.18C1787.74 469.473 1787.36 468.933 1786.85 468.56C1786.34 468.187 1785.75 468 1785.07 468C1784.55 468 1784.09 468.107 1783.69 468.32C1783.29 468.52 1782.98 468.8 1782.75 469.16C1782.52 469.507 1782.41 469.913 1782.41 470.38C1782.41 470.993 1782.63 471.5 1783.07 471.9C1783.51 472.287 1784.21 472.593 1785.17 472.82L1786.05 473.02C1787.32 473.313 1788.26 473.807 1788.87 474.5C1789.5 475.193 1789.81 476.033 1789.81 477.02C1789.81 477.647 1789.69 478.227 1789.45 478.76C1789.22 479.28 1788.9 479.733 1788.47 480.12C1788.06 480.493 1787.56 480.787 1786.99 481C1786.42 481.2 1785.79 481.3 1785.11 481.3ZM1796.12 481.3C1795.38 481.3 1794.68 481.173 1794.04 480.92C1793.4 480.653 1792.85 480.28 1792.38 479.8C1791.92 479.32 1791.58 478.753 1791.36 478.1L1792.94 477.6C1793.21 478.293 1793.62 478.833 1794.16 479.22C1794.72 479.607 1795.37 479.8 1796.1 479.8C1796.68 479.8 1797.19 479.687 1797.64 479.46C1798.11 479.22 1798.47 478.9 1798.72 478.5C1798.99 478.087 1799.12 477.627 1799.12 477.12C1799.12 476.467 1798.9 475.933 1798.44 475.52C1798 475.093 1797.36 474.787 1796.52 474.6L1795.64 474.4C1794.34 474.107 1793.36 473.627 1792.7 472.96C1792.05 472.293 1791.72 471.473 1791.72 470.5C1791.72 469.913 1791.83 469.38 1792.04 468.9C1792.27 468.407 1792.58 467.98 1792.98 467.62C1793.38 467.26 1793.84 466.987 1794.36 466.8C1794.9 466.6 1795.47 466.5 1796.08 466.5C1796.8 466.5 1797.46 466.633 1798.06 466.9C1798.68 467.153 1799.2 467.52 1799.64 468C1800.08 468.48 1800.4 469.04 1800.6 469.68L1799.02 470.18C1798.76 469.473 1798.37 468.933 1797.86 468.56C1797.36 468.187 1796.76 468 1796.08 468C1795.56 468 1795.1 468.107 1794.7 468.32C1794.3 468.52 1793.99 468.8 1793.76 469.16C1793.54 469.507 1793.42 469.913 1793.42 470.38C1793.42 470.993 1793.64 471.5 1794.08 471.9C1794.52 472.287 1795.22 472.593 1796.18 472.82L1797.06 473.02C1798.33 473.313 1799.27 473.807 1799.88 474.5C1800.51 475.193 1800.82 476.033 1800.82 477.02C1800.82 477.647 1800.7 478.227 1800.46 478.76C1800.24 479.28 1799.91 479.733 1799.48 480.12C1799.07 480.493 1798.58 480.787 1798 481C1797.43 481.2 1796.8 481.3 1796.12 481.3Z" fill="#4B4B4B"/>
<path d="M336.78 57.4C335.807 57.4 334.907 57.22 334.08 56.86C333.267 56.4867 332.553 55.9733 331.94 55.32C331.34 54.6533 330.873 53.8733 330.54 52.98C330.207 52.0733 330.04 51.0867 330.04 50.02C330.04 49.1533 330.147 48.34 330.36 47.58C330.587 46.8067 330.9 46.1067 331.3 45.48C331.713 44.84 332.193 44.2933 332.74 43.84C333.3 43.3733 333.92 43.02 334.6 42.78C335.28 42.5267 336 42.4 336.76 42.4C337.613 42.4 338.407 42.5467 339.14 42.84C339.887 43.1333 340.54 43.5467 341.1 44.08C341.673 44.6133 342.113 45.2533 342.42 46L340.88 46.58C340.467 45.74 339.9 45.0933 339.18 44.64C338.473 44.1733 337.673 43.94 336.78 43.94C336.06 43.94 335.393 44.0933 334.78 44.4C334.18 44.7067 333.653 45.1333 333.2 45.68C332.747 46.2267 332.393 46.8667 332.14 47.6C331.887 48.3333 331.76 49.1333 331.76 50C331.76 50.8533 331.88 51.64 332.12 52.36C332.373 53.0667 332.727 53.6867 333.18 54.22C333.633 54.74 334.167 55.1467 334.78 55.44C335.407 55.72 336.087 55.86 336.82 55.86C337.74 55.86 338.553 55.6333 339.26 55.18C339.98 54.7267 340.567 54.0733 341.02 53.22L342.56 53.8C342.24 54.5467 341.793 55.1933 341.22 55.74C340.647 56.2733 339.98 56.6867 339.22 56.98C338.46 57.26 337.647 57.4 336.78 57.4ZM344.994 57V42.8H346.574L351.774 52.32L356.994 42.8H358.514V57H356.874V45.92L352.414 54.04H351.094L346.634 45.92V57H344.994ZM365.554 57.3C364.808 57.3 364.114 57.1733 363.474 56.92C362.834 56.6533 362.281 56.28 361.814 55.8C361.348 55.32 361.008 54.7533 360.794 54.1L362.374 53.6C362.641 54.2933 363.048 54.8333 363.594 55.22C364.154 55.6067 364.801 55.8 365.534 55.8C366.108 55.8 366.621 55.6867 367.074 55.46C367.541 55.22 367.901 54.9 368.154 54.5C368.421 54.0867 368.554 53.6267 368.554 53.12C368.554 52.4667 368.328 51.9333 367.874 51.52C367.434 51.0933 366.794 50.7867 365.954 50.6L365.074 50.4C363.768 50.1067 362.788 49.6267 362.134 48.96C361.481 48.2933 361.154 47.4733 361.154 46.5C361.154 45.9133 361.261 45.38 361.474 44.9C361.701 44.4067 362.014 43.98 362.414 43.62C362.814 43.26 363.274 42.9867 363.794 42.8C364.328 42.6 364.901 42.5 365.514 42.5C366.234 42.5 366.894 42.6333 367.494 42.9C368.108 43.1533 368.634 43.52 369.074 44C369.514 44.48 369.834 45.04 370.034 45.68L368.454 46.18C368.188 45.4733 367.801 44.9333 367.294 44.56C366.788 44.1867 366.194 44 365.514 44C364.994 44 364.534 44.1067 364.134 44.32C363.734 44.52 363.421 44.8 363.194 45.16C362.968 45.5067 362.854 45.9133 362.854 46.38C362.854 46.9933 363.074 47.5 363.514 47.9C363.954 48.2867 364.654 48.5933 365.614 48.82L366.494 49.02C367.761 49.3133 368.701 49.8067 369.314 50.5C369.941 51.1933 370.254 52.0333 370.254 53.02C370.254 53.6467 370.134 54.2267 369.894 54.76C369.668 55.28 369.341 55.7333 368.914 56.12C368.501 56.4933 368.008 56.7867 367.434 57C366.861 57.2 366.234 57.3 365.554 57.3Z" fill="#4B4B4B"/>
<path d="M506.78 236.4C505.807 236.4 504.907 236.22 504.08 235.86C503.267 235.487 502.553 234.973 501.94 234.32C501.34 233.653 500.873 232.873 500.54 231.98C500.207 231.073 500.04 230.087 500.04 229.02C500.04 228.153 500.147 227.34 500.36 226.58C500.587 225.807 500.9 225.107 501.3 224.48C501.713 223.84 502.193 223.293 502.74 222.84C503.3 222.373 503.92 222.02 504.6 221.78C505.28 221.527 506 221.4 506.76 221.4C507.613 221.4 508.407 221.547 509.14 221.84C509.887 222.133 510.54 222.547 511.1 223.08C511.673 223.613 512.113 224.253 512.42 225L510.88 225.58C510.467 224.74 509.9 224.093 509.18 223.64C508.473 223.173 507.673 222.94 506.78 222.94C506.06 222.94 505.393 223.093 504.78 223.4C504.18 223.707 503.653 224.133 503.2 224.68C502.747 225.227 502.393 225.867 502.14 226.6C501.887 227.333 501.76 228.133 501.76 229C501.76 229.853 501.88 230.64 502.12 231.36C502.373 232.067 502.727 232.687 503.18 233.22C503.633 233.74 504.167 234.147 504.78 234.44C505.407 234.72 506.087 234.86 506.82 234.86C507.74 234.86 508.553 234.633 509.26 234.18C509.98 233.727 510.567 233.073 511.02 232.22L512.56 232.8C512.24 233.547 511.793 234.193 511.22 234.74C510.647 235.273 509.98 235.687 509.22 235.98C508.46 236.26 507.647 236.4 506.78 236.4ZM515.234 231.16V229.82H518.654V226.34H520.074V229.82H523.514V231.16H520.074V234.76H518.654V231.16H515.234ZM527.109 231.16V229.82H530.529V226.34H531.949V229.82H535.389V231.16H531.949V234.76H530.529V231.16H527.109Z" fill="#4B4B4B"/>
<path d="M800.678 0.448303H774.722C761.572 0.448303 751 11.1059 751 24.1701C751 37.3202 761.658 47.9778 774.722 47.9778H812.453L824.4 58.7214V38.2656V25.6312V24.256C824.4 11.1059 813.828 0.448303 800.678 0.448303Z" fill="#2E2E30"/>
<path d="M778.78 31.0979C777.807 31.0979 776.907 30.9179 776.08 30.5579C775.267 30.1846 774.553 29.6713 773.94 29.0179C773.34 28.3513 772.873 27.5713 772.54 26.6779C772.207 25.7713 772.04 24.7846 772.04 23.7179C772.04 22.8513 772.147 22.0379 772.36 21.2779C772.587 20.5046 772.9 19.8046 773.3 19.1779C773.713 18.5379 774.193 17.9913 774.74 17.5379C775.3 17.0713 775.92 16.7179 776.6 16.4779C777.28 16.2246 778 16.0979 778.76 16.0979C779.613 16.0979 780.407 16.2446 781.14 16.5379C781.887 16.8313 782.54 17.2446 783.1 17.7779C783.673 18.3113 784.113 18.9513 784.42 19.6979L782.88 20.2779C782.467 19.4379 781.9 18.7913 781.18 18.3379C780.473 17.8713 779.673 17.6379 778.78 17.6379C778.06 17.6379 777.393 17.7913 776.78 18.0979C776.18 18.4046 775.653 18.8313 775.2 19.3779C774.747 19.9246 774.393 20.5646 774.14 21.2979C773.887 22.0313 773.76 22.8313 773.76 23.6979C773.76 24.5513 773.88 25.3379 774.12 26.0579C774.373 26.7646 774.727 27.3846 775.18 27.9179C775.633 28.4379 776.167 28.8446 776.78 29.1379C777.407 29.4179 778.087 29.5579 778.82 29.5579C779.74 29.5579 780.553 29.3313 781.26 28.8779C781.98 28.4246 782.567 27.7713 783.02 26.9179L784.56 27.4979C784.24 28.2446 783.793 28.8913 783.22 29.4379C782.647 29.9713 781.98 30.3846 781.22 30.6779C780.46 30.9579 779.647 31.0979 778.78 31.0979ZM787.234 25.8579V24.5179H790.654V21.0379H792.074V24.5179H795.514V25.8579H792.074V29.4579H790.654V25.8579H787.234ZM799.109 25.8579V24.5179H802.529V21.0379H803.949V24.5179H807.389V25.8579H803.949V29.4579H802.529V25.8579H799.109Z" fill="#4B4B4B"/>
<path d="M243.385 314H216.014C202.148 314 191 325.238 191 339.015C191 352.881 202.238 364.12 216.014 364.12H255.802L268.4 375.449V353.878V340.555V339.105C268.4 325.238 257.252 314 243.385 314Z" fill="#2E2E30"/>
<path d="M200.4 310.1C199.4 310.1 198.6 309.3 198.6 308.3V297.8C198.6 296.8 199.4 296 200.4 296C201.4 296 202.2 296.8 202.2 297.8V308.3C202.3 309.3 201.4 310.1 200.4 310.1Z" fill="#6A67FC"/>
<path d="M193.1 313.1C192.4 313.8 191.2 313.8 190.5 313.1L183.2 305.7C182.4 305 182.4 303.9 183.2 303.2C183.9 302.5 185.1 302.5 185.8 303.2L193.2 310.6C193.8 311.3 193.8 312.4 193.1 313.1Z" fill="#6A67FC"/>
<path d="M190.1 320.4C190.1 321.4 189.3 322.2 188.3 322.2H177.8C176.8 322.2 176 321.4 176 320.4C176 319.4 176.8 318.6 177.8 318.6H188.3C189.3 318.6 190.1 319.4 190.1 320.4Z" fill="#6A67FC"/>
<path d="M213.56 347V332.8H217.48C218.56 332.8 219.487 332.98 220.26 333.34C221.047 333.7 221.647 334.213 222.06 334.88C222.473 335.547 222.68 336.347 222.68 337.28C222.68 338.187 222.46 338.973 222.02 339.64C221.58 340.307 220.953 340.82 220.14 341.18C219.327 341.54 218.367 341.72 217.26 341.72C216.967 341.72 216.647 341.707 216.3 341.68C215.967 341.653 215.613 341.613 215.24 341.56V347H213.56ZM215.24 334.3V340.06C215.56 340.113 215.893 340.153 216.24 340.18C216.6 340.207 216.927 340.22 217.22 340.22C218.407 340.22 219.327 339.967 219.98 339.46C220.633 338.94 220.96 338.207 220.96 337.26C220.96 336.647 220.82 336.12 220.54 335.68C220.26 335.24 219.86 334.9 219.34 334.66C218.82 334.42 218.193 334.3 217.46 334.3H215.24ZM224.986 347V332.8H226.666V338.84H234.546V332.8H236.226V347H234.546V340.38H226.666V347H224.986ZM239.341 347V332.8H243.261C244.341 332.8 245.268 332.98 246.041 333.34C246.828 333.7 247.428 334.213 247.841 334.88C248.255 335.547 248.461 336.347 248.461 337.28C248.461 338.187 248.241 338.973 247.801 339.64C247.361 340.307 246.735 340.82 245.921 341.18C245.108 341.54 244.148 341.72 243.041 341.72C242.748 341.72 242.428 341.707 242.081 341.68C241.748 341.653 241.395 341.613 241.021 341.56V347H239.341ZM241.021 334.3V340.06C241.341 340.113 241.675 340.153 242.021 340.18C242.381 340.207 242.708 340.22 243.001 340.22C244.188 340.22 245.108 339.967 245.761 339.46C246.415 338.94 246.741 338.207 246.741 337.26C246.741 336.647 246.601 336.12 246.321 335.68C246.041 335.24 245.641 334.9 245.121 334.66C244.601 334.42 243.975 334.3 243.241 334.3H241.021Z" fill="#4B4B4B"/>
<path d="M70.56 183V168.8H74.48C75.56 168.8 76.4867 168.98 77.26 169.34C78.0467 169.7 78.6467 170.213 79.06 170.88C79.4733 171.547 79.68 172.347 79.68 173.28C79.68 174.187 79.46 174.973 79.02 175.64C78.58 176.307 77.9533 176.82 77.14 177.18C76.3267 177.54 75.3667 177.72 74.26 177.72C73.9667 177.72 73.6467 177.707 73.3 177.68C72.9667 177.653 72.6133 177.613 72.24 177.56V183H70.56ZM72.24 170.3V176.06C72.56 176.113 72.8933 176.153 73.24 176.18C73.6 176.207 73.9267 176.22 74.22 176.22C75.4067 176.22 76.3267 175.967 76.98 175.46C77.6333 174.94 77.96 174.207 77.96 173.26C77.96 172.647 77.82 172.12 77.54 171.68C77.26 171.24 76.86 170.9 76.34 170.66C75.82 170.42 75.1933 170.3 74.46 170.3H72.24ZM81.9858 183V168.8H83.6658V174.84H91.5458V168.8H93.2258V183H91.5458V176.38H83.6658V183H81.9858ZM96.3413 183V168.8H100.261C101.341 168.8 102.268 168.98 103.041 169.34C103.828 169.7 104.428 170.213 104.841 170.88C105.255 171.547 105.461 172.347 105.461 173.28C105.461 174.187 105.241 174.973 104.801 175.64C104.361 176.307 103.735 176.82 102.921 177.18C102.108 177.54 101.148 177.72 100.041 177.72C99.7479 177.72 99.4279 177.707 99.0813 177.68C98.7479 177.653 98.3946 177.613 98.0213 177.56V183H96.3413ZM98.0213 170.3V176.06C98.3413 176.113 98.6746 176.153 99.0213 176.18C99.3813 176.207 99.7079 176.22 100.001 176.22C101.188 176.22 102.108 175.967 102.761 175.46C103.415 174.94 103.741 174.207 103.741 173.26C103.741 172.647 103.601 172.12 103.321 171.68C103.041 171.24 102.641 170.9 102.121 170.66C101.601 170.42 100.975 170.3 100.241 170.3H98.0213Z" fill="#4B4B4B"/>
<path d="M552.78 494.4C551.807 494.4 550.907 494.22 550.08 493.86C549.267 493.487 548.553 492.973 547.94 492.32C547.34 491.653 546.873 490.873 546.54 489.98C546.207 489.073 546.04 488.087 546.04 487.02C546.04 486.153 546.147 485.34 546.36 484.58C546.587 483.807 546.9 483.107 547.3 482.48C547.713 481.84 548.193 481.293 548.74 480.84C549.3 480.373 549.92 480.02 550.6 479.78C551.28 479.527 552 479.4 552.76 479.4C553.613 479.4 554.407 479.547 555.14 479.84C555.887 480.133 556.54 480.547 557.1 481.08C557.673 481.613 558.113 482.253 558.42 483L556.88 483.58C556.467 482.74 555.9 482.093 555.18 481.64C554.473 481.173 553.673 480.94 552.78 480.94C552.06 480.94 551.393 481.093 550.78 481.4C550.18 481.707 549.653 482.133 549.2 482.68C548.747 483.227 548.393 483.867 548.14 484.6C547.887 485.333 547.76 486.133 547.76 487C547.76 487.853 547.88 488.64 548.12 489.36C548.373 490.067 548.727 490.687 549.18 491.22C549.633 491.74 550.167 492.147 550.78 492.44C551.407 492.72 552.087 492.86 552.82 492.86C553.74 492.86 554.553 492.633 555.26 492.18C555.98 491.727 556.567 491.073 557.02 490.22L558.56 490.8C558.24 491.547 557.793 492.193 557.22 492.74C556.647 493.273 555.98 493.687 555.22 493.98C554.46 494.26 553.647 494.4 552.78 494.4ZM565.109 494.3C564.362 494.3 563.669 494.173 563.029 493.92C562.389 493.653 561.836 493.28 561.369 492.8C560.902 492.32 560.562 491.753 560.349 491.1L561.929 490.6C562.196 491.293 562.602 491.833 563.149 492.22C563.709 492.607 564.356 492.8 565.089 492.8C565.662 492.8 566.176 492.687 566.629 492.46C567.096 492.22 567.456 491.9 567.709 491.5C567.976 491.087 568.109 490.627 568.109 490.12C568.109 489.467 567.882 488.933 567.429 488.52C566.989 488.093 566.349 487.787 565.509 487.6L564.629 487.4C563.322 487.107 562.342 486.627 561.689 485.96C561.036 485.293 560.709 484.473 560.709 483.5C560.709 482.913 560.816 482.38 561.029 481.9C561.256 481.407 561.569 480.98 561.969 480.62C562.369 480.26 562.829 479.987 563.349 479.8C563.882 479.6 564.456 479.5 565.069 479.5C565.789 479.5 566.449 479.633 567.049 479.9C567.662 480.153 568.189 480.52 568.629 481C569.069 481.48 569.389 482.04 569.589 482.68L568.009 483.18C567.742 482.473 567.356 481.933 566.849 481.56C566.342 481.187 565.749 481 565.069 481C564.549 481 564.089 481.107 563.689 481.32C563.289 481.52 562.976 481.8 562.749 482.16C562.522 482.507 562.409 482.913 562.409 483.38C562.409 483.993 562.629 484.5 563.069 484.9C563.509 485.287 564.209 485.593 565.169 485.82L566.049 486.02C567.316 486.313 568.256 486.807 568.869 487.5C569.496 488.193 569.809 489.033 569.809 490.02C569.809 490.647 569.689 491.227 569.449 491.76C569.222 492.28 568.896 492.733 568.469 493.12C568.056 493.493 567.562 493.787 566.989 494C566.416 494.2 565.789 494.3 565.109 494.3ZM576.125 494.3C575.378 494.3 574.685 494.173 574.045 493.92C573.405 493.653 572.851 493.28 572.385 492.8C571.918 492.32 571.578 491.753 571.365 491.1L572.945 490.6C573.211 491.293 573.618 491.833 574.165 492.22C574.725 492.607 575.371 492.8 576.105 492.8C576.678 492.8 577.191 492.687 577.645 492.46C578.111 492.22 578.471 491.9 578.725 491.5C578.991 491.087 579.125 490.627 579.125 490.12C579.125 489.467 578.898 488.933 578.445 488.52C578.005 488.093 577.365 487.787 576.525 487.6L575.645 487.4C574.338 487.107 573.358 486.627 572.705 485.96C572.051 485.293 571.725 484.473 571.725 483.5C571.725 482.913 571.831 482.38 572.045 481.9C572.271 481.407 572.585 480.98 572.985 480.62C573.385 480.26 573.845 479.987 574.365 479.8C574.898 479.6 575.471 479.5 576.085 479.5C576.805 479.5 577.465 479.633 578.065 479.9C578.678 480.153 579.205 480.52 579.645 481C580.085 481.48 580.405 482.04 580.605 482.68L579.025 483.18C578.758 482.473 578.371 481.933 577.865 481.56C577.358 481.187 576.765 481 576.085 481C575.565 481 575.105 481.107 574.705 481.32C574.305 481.52 573.991 481.8 573.765 482.16C573.538 482.507 573.425 482.913 573.425 483.38C573.425 483.993 573.645 484.5 574.085 484.9C574.525 485.287 575.225 485.593 576.185 485.82L577.065 486.02C578.331 486.313 579.271 486.807 579.885 487.5C580.511 488.193 580.825 489.033 580.825 490.02C580.825 490.647 580.705 491.227 580.465 491.76C580.238 492.28 579.911 492.733 579.485 493.12C579.071 493.493 578.578 493.787 578.005 494C577.431 494.2 576.805 494.3 576.125 494.3Z" fill="#4B4B4B"/>
<path d="M7.78 579.4C6.80667 579.4 5.90667 579.22 5.08 578.86C4.26667 578.487 3.55333 577.973 2.94 577.32C2.34 576.653 1.87333 575.873 1.54 574.98C1.20667 574.073 1.04 573.087 1.04 572.02C1.04 571.153 1.14667 570.34 1.36 569.58C1.58667 568.807 1.9 568.107 2.3 567.48C2.71333 566.84 3.19333 566.293 3.74 565.84C4.3 565.373 4.92 565.02 5.6 564.78C6.28 564.527 7 564.4 7.76 564.4C8.61333 564.4 9.40667 564.547 10.14 564.84C10.8867 565.133 11.54 565.547 12.1 566.08C12.6733 566.613 13.1133 567.253 13.42 568L11.88 568.58C11.4667 567.74 10.9 567.093 10.18 566.64C9.47333 566.173 8.67333 565.94 7.78 565.94C7.06 565.94 6.39333 566.093 5.78 566.4C5.18 566.707 4.65333 567.133 4.2 567.68C3.74667 568.227 3.39333 568.867 3.14 569.6C2.88667 570.333 2.76 571.133 2.76 572C2.76 572.853 2.88 573.64 3.12 574.36C3.37333 575.067 3.72667 575.687 4.18 576.22C4.63333 576.74 5.16667 577.147 5.78 577.44C6.40667 577.72 7.08667 577.86 7.82 577.86C8.74 577.86 9.55333 577.633 10.26 577.18C10.98 576.727 11.5667 576.073 12.02 575.22L13.56 575.8C13.24 576.547 12.7933 577.193 12.22 577.74C11.6467 578.273 10.98 578.687 10.22 578.98C9.46 579.26 8.64667 579.4 7.78 579.4ZM20.1089 579.3C19.3622 579.3 18.6689 579.173 18.0289 578.92C17.3889 578.653 16.8356 578.28 16.3689 577.8C15.9022 577.32 15.5622 576.753 15.3489 576.1L16.9289 575.6C17.1956 576.293 17.6022 576.833 18.1489 577.22C18.7089 577.607 19.3556 577.8 20.0889 577.8C20.6622 577.8 21.1756 577.687 21.6289 577.46C22.0956 577.22 22.4556 576.9 22.7089 576.5C22.9756 576.087 23.1089 575.627 23.1089 575.12C23.1089 574.467 22.8822 573.933 22.4289 573.52C21.9889 573.093 21.3489 572.787 20.5089 572.6L19.6289 572.4C18.3222 572.107 17.3422 571.627 16.6889 570.96C16.0356 570.293 15.7089 569.473 15.7089 568.5C15.7089 567.913 15.8156 567.38 16.0289 566.9C16.2556 566.407 16.5689 565.98 16.9689 565.62C17.3689 565.26 17.8289 564.987 18.3489 564.8C18.8822 564.6 19.4556 564.5 20.0689 564.5C20.7889 564.5 21.4489 564.633 22.0489 564.9C22.6622 565.153 23.1889 565.52 23.6289 566C24.0689 566.48 24.3889 567.04 24.5889 567.68L23.0089 568.18C22.7422 567.473 22.3556 566.933 21.8489 566.56C21.3422 566.187 20.7489 566 20.0689 566C19.5489 566 19.0889 566.107 18.6889 566.32C18.2889 566.52 17.9756 566.8 17.7489 567.16C17.5222 567.507 17.4089 567.913 17.4089 568.38C17.4089 568.993 17.6289 569.5 18.0689 569.9C18.5089 570.287 19.2089 570.593 20.1689 570.82L21.0489 571.02C22.3156 571.313 23.2556 571.807 23.8689 572.5C24.4956 573.193 24.8089 574.033 24.8089 575.02C24.8089 575.647 24.6889 576.227 24.4489 576.76C24.2222 577.28 23.8956 577.733 23.4689 578.12C23.0556 578.493 22.5622 578.787 21.9889 579C21.4156 579.2 20.7889 579.3 20.1089 579.3ZM31.1245 579.3C30.3779 579.3 29.6845 579.173 29.0445 578.92C28.4045 578.653 27.8512 578.28 27.3845 577.8C26.9179 577.32 26.5779 576.753 26.3645 576.1L27.9445 575.6C28.2112 576.293 28.6179 576.833 29.1645 577.22C29.7245 577.607 30.3712 577.8 31.1045 577.8C31.6779 577.8 32.1912 577.687 32.6445 577.46C33.1112 577.22 33.4712 576.9 33.7245 576.5C33.9912 576.087 34.1245 575.627 34.1245 575.12C34.1245 574.467 33.8979 573.933 33.4445 573.52C33.0045 573.093 32.3645 572.787 31.5245 572.6L30.6445 572.4C29.3379 572.107 28.3579 571.627 27.7045 570.96C27.0512 570.293 26.7245 569.473 26.7245 568.5C26.7245 567.913 26.8312 567.38 27.0445 566.9C27.2712 566.407 27.5845 565.98 27.9845 565.62C28.3845 565.26 28.8445 564.987 29.3645 564.8C29.8979 564.6 30.4712 564.5 31.0845 564.5C31.8045 564.5 32.4645 564.633 33.0645 564.9C33.6779 565.153 34.2045 565.52 34.6445 566C35.0845 566.48 35.4045 567.04 35.6045 567.68L34.0245 568.18C33.7579 567.473 33.3712 566.933 32.8645 566.56C32.3579 566.187 31.7645 566 31.0845 566C30.5645 566 30.1045 566.107 29.7045 566.32C29.3045 566.52 28.9912 566.8 28.7645 567.16C28.5379 567.507 28.4245 567.913 28.4245 568.38C28.4245 568.993 28.6445 569.5 29.0845 569.9C29.5245 570.287 30.2245 570.593 31.1845 570.82L32.0645 571.02C33.3312 571.313 34.2712 571.807 34.8845 572.5C35.5112 573.193 35.8245 574.033 35.8245 575.02C35.8245 575.647 35.7045 576.227 35.4645 576.76C35.2379 577.28 34.9112 577.733 34.4845 578.12C34.0712 578.493 33.5779 578.787 33.0045 579C32.4312 579.2 31.8045 579.3 31.1245 579.3Z" fill="#4B4B4B"/>
</svg>
