<svg width="50" height="50" viewBox="0 0 50 50" fill="none" xmlns="http://www.w3.org/2000/svg">
<path d="M17.428 7.04526C15.4559 8.48441 13.9238 10.4447 13.0038 12.706C12.1169 14.982 11.3474 17.3018 10.6981 19.6566C9.79791 22.8603 9.01946 26.1174 8.17459 29.3732C7.73986 31.1185 8.3469 31.7579 9.98932 31.0767C10.9914 30.7056 11.8392 30.0076 12.3959 29.0956C15.2764 22.8707 18.3872 16.6296 19.7596 9.86179L19.9317 9.37933C20.0544 8.51268 20.6567 7.40413 19.7041 6.94258C18.7515 6.48103 17.9295 7.00817 17.428 7.04526Z" fill="#00CBD8"/>
<path d="M34.7214 15.7461C31.5242 18.0941 28.6649 20.8704 26.224 23.9972C24.0677 26.8465 22.073 29.8111 20.0783 32.7756C19.8121 33.3425 19.6391 33.9486 19.566 34.5706C20.2848 34.6351 21.0085 34.6188 21.7236 34.5221C22.2785 34.3633 22.7746 34.0451 23.1504 33.607C26.6521 29.6249 30.1457 25.6188 33.6313 21.5887C34.8838 20.1289 36.0965 18.607 37.2893 17.0541C37.5799 16.6419 37.8052 16.1874 37.9572 15.7065C38.2314 14.9396 37.8865 14.5042 37.1214 14.7104C36.2964 14.9947 35.4942 15.3409 34.7214 15.7461V15.7461Z" fill="#00CBD8"/>
<path d="M38.5375 38.5646C40.3254 37.3865 43.3404 35.4596 46.2363 33.4737C46.7153 33.1979 46.8774 32.4456 47.1934 31.9235C46.5717 31.8775 45.8624 31.6056 45.3374 31.8015C43.6768 32.3446 42.0683 33.0358 40.5313 33.8666C35.7411 36.6242 31.0152 39.4935 26.2618 42.3149C25.9255 42.5063 25.6197 42.7468 25.3545 43.0285C25.1101 43.3831 24.9001 43.7602 24.7274 44.1548C25.1551 44.27 25.6336 44.5473 26.0081 44.4592C26.9103 44.2475 27.7862 43.9358 28.6194 43.53C31.5971 42.0922 34.417 40.639 38.5375 38.5646Z" fill="#00CBD8"/>
</svg>
