<svg width="123" height="36" viewBox="0 0 123 36" fill="none" xmlns="http://www.w3.org/2000/svg">
<path fill-rule="evenodd" clip-rule="evenodd" d="M28.3129 25.1992C27.6685 26.0805 27.3822 27.1973 27.6835 28.2467L29.5961 34.9074C29.7678 35.5053 29.2074 36.0551 28.6128 35.8721L23.7862 34.3859C21.9935 33.834 20.1298 33.4151 18.2656 32.9961C13.8814 32.0107 9.49438 31.0247 6.02099 28.3051C2.35583 25.4354 0 20.9674 0 15.9487C0 7.28962 7.01311 0.27002 15.6642 0.27002C24.3153 0.27002 31.3284 7.28962 31.3284 15.9487C31.3284 19.4083 30.209 22.6062 28.3129 25.1992ZM15.6642 24.9557C20.634 24.9557 24.6628 20.9231 24.6628 15.9487C24.6628 10.9744 20.634 6.94182 15.6642 6.94182C10.6944 6.94182 6.66563 10.9744 6.66563 15.9487C6.66563 20.9231 10.6944 24.9557 15.6642 24.9557Z" fill="#4C4AD2"/>
<path d="M122.603 29V3.7959H117.834V29H122.603Z" fill="#4C4AD2"/>
<path fill-rule="evenodd" clip-rule="evenodd" d="M54.9824 19.1568C54.9824 19.838 54.937 20.4511 54.8462 20.996H41.052C41.1656 22.3584 41.6424 23.4256 42.4825 24.1976C43.3227 24.9696 44.3558 25.3556 45.582 25.3556C47.3531 25.3556 48.6133 24.595 49.3626 23.0737H54.5056C53.9606 24.8902 52.9161 26.3888 51.3721 27.5695C49.8281 28.7276 47.9321 29.3066 45.6842 29.3066C43.8676 29.3066 42.2328 28.9092 40.7796 28.1145C39.3491 27.297 38.2251 26.1504 37.4077 24.6745C36.6129 23.1985 36.2156 21.4956 36.2156 19.5655C36.2156 17.6128 36.6129 15.8984 37.4077 14.4225C38.2024 12.9466 39.315 11.8113 40.7455 11.0165C42.176 10.2218 43.8222 9.82445 45.6842 9.82445C47.478 9.82445 49.0788 10.2105 50.4866 10.9825C51.9171 11.7545 53.0183 12.8558 53.7903 14.2863C54.5851 15.6941 54.9824 17.3176 54.9824 19.1568ZM50.0438 17.7944C50.0211 16.5683 49.5783 15.5919 48.7155 14.8653C47.8526 14.116 46.7968 13.7413 45.5479 13.7413C44.3672 13.7413 43.3681 14.1046 42.5507 14.8312C41.7559 15.5351 41.2678 16.5228 41.0861 17.7944H50.0438Z" fill="#4C4AD2"/>
<path d="M63.2313 13.0601C63.8443 12.061 64.6391 11.2777 65.6154 10.71C66.6145 10.1423 67.7498 9.85851 69.0214 9.85851V14.8653H67.7612C66.2626 14.8653 65.1272 15.2172 64.3552 15.9211C63.6059 16.625 63.2313 17.8512 63.2313 19.5996V29H58.4629V10.131H63.2313V13.0601Z" fill="#4C4AD2"/>
<path d="M88.139 12.0043C86.7539 10.5738 84.9374 9.85851 82.6894 9.85851C81.5087 9.85851 80.4188 10.0969 79.4197 10.5738C78.4433 11.0279 77.6372 11.6637 77.0015 12.4811V10.131H72.2331V29H77.0015V18.5778C77.0015 17.0792 77.3761 15.9325 78.1254 15.1378C78.8974 14.3203 79.9419 13.9116 81.2589 13.9116C82.5532 13.9116 83.575 14.3203 84.3243 15.1378C85.0736 15.9325 85.4482 17.0792 85.4482 18.5778V29H90.2166V17.9306C90.2166 15.3875 89.524 13.4121 88.139 12.0043Z" fill="#4C4AD2"/>
<path fill-rule="evenodd" clip-rule="evenodd" d="M93.5249 19.4974C93.5249 17.59 93.8996 15.8984 94.6489 14.4225C95.4209 12.9466 96.454 11.8113 97.7483 11.0165C99.0653 10.2218 100.53 9.82445 102.142 9.82445C103.55 9.82445 104.776 10.1083 105.82 10.6759C106.888 11.2436 107.739 11.9589 108.375 12.8217V10.131H113.177V29H108.375V26.2412C107.762 27.1267 106.91 27.8647 105.82 28.4551C104.753 29.0227 103.516 29.3066 102.108 29.3066C100.518 29.3066 99.0653 28.8979 97.7483 28.0804C96.454 27.263 95.4209 26.1163 94.6489 24.6404C93.8996 23.1418 93.5249 21.4274 93.5249 19.4974ZM108.375 19.5655C108.375 18.4075 108.148 17.4198 107.694 16.6023C107.24 15.7622 106.627 15.1264 105.854 14.695C105.082 14.2409 104.254 14.0138 103.368 14.0138C102.483 14.0138 101.665 14.2295 100.916 14.6609C100.167 15.0923 99.5535 15.7281 99.0766 16.5683C98.6225 17.3857 98.3954 18.3621 98.3954 19.4974C98.3954 20.6327 98.6225 21.6318 99.0766 22.4946C99.5535 23.3348 100.167 23.9819 100.916 24.436C101.688 24.8902 102.505 25.1172 103.368 25.1172C104.254 25.1172 105.082 24.9015 105.854 24.4701C106.627 24.016 107.24 23.3802 107.694 22.5628C108.148 21.7226 108.375 20.7235 108.375 19.5655Z" fill="#4C4AD2"/>
</svg>
