<svg width="104" height="30" viewBox="0 0 104 30" fill="none" xmlns="http://www.w3.org/2000/svg">
<path fill-rule="evenodd" clip-rule="evenodd" d="M20.2846 13.1174C20.2846 17.2087 16.971 20.5254 12.8834 20.5254C8.79591 20.5254 5.48231 17.2087 5.48231 13.1174C5.48231 9.0261 8.79591 5.70943 12.8834 5.70943C16.971 5.70943 20.2846 9.0261 20.2846 13.1174ZM22.769 23.2321C22.5212 22.3691 22.7566 21.4505 23.2867 20.7257C24.8462 18.593 25.7669 15.9628 25.7669 13.1174C25.7669 5.9955 19.9988 0.222046 12.8834 0.222046C5.76811 0.222046 0 5.9955 0 13.1174C0 17.2452 1.93761 20.9199 4.95212 23.2802C9.02362 26.4681 14.6215 26.7599 19.5636 28.2815L23.5333 29.5038C24.0224 29.6544 24.4833 29.2022 24.3421 28.7104L22.769 23.2321Z" fill="#4C4AD2"/>
<path d="M46.0328 15.9042C46.0328 16.4644 45.9955 16.9687 45.9208 17.4169H34.5754C34.6688 18.5374 35.061 19.4152 35.752 20.0501C36.443 20.6851 37.2927 21.0026 38.3012 21.0026C39.7579 21.0026 40.7944 20.377 41.4107 19.1257H45.6407C45.1924 20.6197 44.3334 21.8523 43.0634 22.8234C41.7935 23.7759 40.2341 24.2521 38.3852 24.2521C36.8912 24.2521 35.5466 23.9253 34.3513 23.2717C33.1748 22.5993 32.2503 21.6562 31.578 20.4423C30.9244 19.2284 30.5976 17.8278 30.5976 16.2403C30.5976 14.6342 30.9244 13.2243 31.578 12.0103C32.2317 10.7964 33.1468 9.86267 34.3233 9.20902C35.4999 8.55538 36.8538 8.22856 38.3852 8.22856C39.8606 8.22856 41.1772 8.54604 42.3351 9.18101C43.5116 9.81598 44.4174 10.7217 45.0524 11.8983C45.706 13.0562 46.0328 14.3915 46.0328 15.9042ZM41.9709 14.7837C41.9522 13.7752 41.5881 12.9721 40.8784 12.3745C40.1687 11.7582 39.3003 11.4501 38.2732 11.4501C37.3021 11.4501 36.4803 11.7489 35.808 12.3465C35.1544 12.9254 34.7528 13.7378 34.6034 14.7837H41.9709ZM52.8173 10.8898C53.3215 10.0681 53.9752 9.42379 54.7782 8.95691C55.5999 8.49002 56.5337 8.25657 57.5795 8.25657V12.3745H56.543C55.3105 12.3745 54.3767 12.664 53.7417 13.2429C53.1254 13.8219 52.8173 14.8303 52.8173 16.2684V24H48.8954V8.48068H52.8173V10.8898ZM68.8211 8.25657C70.67 8.25657 72.1641 8.84485 73.3033 10.0214C74.4425 11.1793 75.0121 12.8041 75.0121 14.8957V24H71.0902V15.428C71.0902 14.1954 70.7821 13.2523 70.1658 12.5986C69.5495 11.9263 68.7091 11.5901 67.6446 11.5901C66.5614 11.5901 65.7023 11.9263 65.0674 12.5986C64.4511 13.2523 64.1429 14.1954 64.1429 15.428V24H60.2211V8.48068H64.1429V10.4136C64.6659 9.74127 65.3288 9.21836 66.1319 8.84485C66.9536 8.45267 67.85 8.25657 68.8211 8.25657ZM77.7331 16.1843C77.7331 14.6156 78.0412 13.2243 78.6575 12.0103C79.2925 10.7964 80.1422 9.86267 81.2067 9.20902C82.2899 8.55538 83.4945 8.22856 84.8204 8.22856C85.9783 8.22856 86.9868 8.462 87.8458 8.92889C88.7236 9.39578 89.4239 9.98406 89.9468 10.6937V8.48068H93.8967V24H89.9468V21.7309C89.4426 22.4593 88.7423 23.0662 87.8458 23.5518C86.9681 24.0187 85.9503 24.2521 84.7924 24.2521C83.4851 24.2521 82.2899 23.916 81.2067 23.2436C80.1422 22.5713 79.2925 21.6282 78.6575 20.4143C78.0412 19.1817 77.7331 17.7717 77.7331 16.1843ZM89.9468 16.2403C89.9468 15.2879 89.7601 14.4755 89.3866 13.8032C89.0131 13.1122 88.5088 12.5893 87.8739 12.2345C87.2389 11.8609 86.5572 11.6742 85.8289 11.6742C85.1005 11.6742 84.4282 11.8516 83.8119 12.2064C83.1956 12.5613 82.6914 13.0842 82.2992 13.7752C81.9257 14.4475 81.739 15.2505 81.739 16.1843C81.739 17.1181 81.9257 17.9398 82.2992 18.6495C82.6914 19.3405 83.1956 19.8727 83.8119 20.2462C84.4469 20.6197 85.1192 20.8065 85.8289 20.8065C86.5572 20.8065 87.2389 20.6291 87.8739 20.2742C88.5088 19.9007 89.0131 19.3778 89.3866 18.7055C89.7601 18.0145 89.9468 17.1928 89.9468 16.2403ZM101.649 3.27022V24H97.7271V3.27022H101.649Z" fill="white"/>
</svg>
