<svg width="24" height="20" viewBox="0 0 24 20" fill="none" xmlns="http://www.w3.org/2000/svg">
<path d="M23.065 4.62716C22.9621 6.87809 21.3929 9.95977 18.3584 13.8712C15.2209 17.9568 12.5662 20 10.395 20C9.04986 20 7.91142 18.7558 6.98162 16.2674C6.36048 13.9866 5.7403 11.7059 5.11915 9.4242C4.42878 6.93674 3.6884 5.69157 2.89707 5.69157C2.724 5.69157 2.12016 6.05598 1.08652 6.78097L0 5.38003C1.13941 4.37716 2.26247 3.37526 3.36822 2.37143C4.88742 1.05606 6.02779 0.364727 6.7874 0.294535C8.58352 0.121461 9.68927 1.35125 10.1037 3.98486C10.5518 6.82617 10.8623 8.59248 11.0364 9.28382C11.5537 11.6405 12.1239 12.8174 12.746 12.8174C13.2286 12.8174 13.9546 12.053 14.9219 10.5242C15.8882 8.99536 16.4055 7.83192 16.4757 7.03289C16.6132 5.71368 16.0959 5.05215 14.9219 5.05215C14.369 5.05215 13.7998 5.17908 13.2142 5.43099C14.3479 1.70894 16.5151 -0.0987279 19.7132 0.00415511C22.0843 0.0743463 23.2016 1.61471 23.065 4.62716Z" fill="#FFEB37"/>
</svg>
